<?xml version="1.0" standalone="no"?>
<!DOCTYPE svg PUBLIC "-//W3C//DTD SVG 20010904//EN"
 "http://www.w3.org/TR/2001/REC-SVG-20010904/DTD/svg10.dtd">
<svg version="1.0" xmlns="http://www.w3.org/2000/svg"
 width="1920.000000pt" height="1080.000000pt" viewBox="0 0 1920.000000 1080.000000"
 preserveAspectRatio="xMidYMid meet">

<g transform="translate(0.000000,1080.000000) scale(0.100000,-0.100000)"
fill="#000000" stroke="none">
<path d="M0 5400 l0 -5400 7958 3 c6115 2 7967 6 8002 15 25 6 76 18 114 27
37 8 75 20 82 26 8 7 48 11 92 11 44 0 66 3 52 7 -23 6 -23 8 -6 14 12 5 22 3
27 -4 7 -11 37 -10 134 6 l30 5 -30 -15 c-16 -8 -54 -14 -82 -15 l-53 0 0 -40
0 -40 1440 0 1440 0 0 920 0 920 -40 0 -40 0 0 -40 0 -40 -80 0 -80 0 0 -40 0
-40 -80 0 -80 0 0 -40 0 -40 -40 0 -40 0 0 -40 0 -40 -80 0 -80 0 0 -40 0 -40
-80 0 c-57 0 -80 -4 -80 -12 0 -7 -9 1 -19 19 -11 17 -71 82 -133 145 -187
187 -228 246 -236 344 -3 42 1 62 23 105 14 30 30 56 33 59 4 3 32 34 62 70
30 36 60 69 68 73 29 19 33 57 12 114 -33 87 -27 128 26 200 l24 32 68 -47
c37 -25 69 -50 70 -54 2 -4 8 -8 14 -8 9 0 55 -31 171 -115 23 -17 70 -48 105
-69 34 -22 62 -43 62 -47 0 -5 5 -9 10 -9 9 0 65 -37 100 -67 50 -43 79 -63
89 -63 6 0 11 -7 11 -15 0 -9 9 -15 25 -15 14 0 25 -4 25 -10 0 -5 7 -10 15
-10 8 0 15 -3 15 -7 0 -5 18 -19 40 -33 22 -13 40 -28 40 -32 0 -4 6 -8 13 -8
8 0 22 -9 32 -20 10 -11 22 -20 27 -20 4 0 8 1994 8 4430 l0 4430 -9600 0
-9600 0 0 -5400z m10375 5060 c-5 -8 -11 -8 -17 -2 -6 6 -7 16 -3 22 5 8 11 8
17 2 6 -6 7 -16 3 -22z m-9050 9 c10 -15 -1 -23 -20 -15 -9 3 -13 10 -10 16 8
13 22 13 30 -1z m6623 0 c-2 -6 -8 -10 -13 -10 -5 0 -11 4 -13 10 -2 6 4 11
13 11 9 0 15 -5 13 -11z m9506 -10 c-7 -11 -34 -12 -34 -1 0 14 11 21 26 15 8
-3 11 -9 8 -14z m-5490 -48 c3 -5 -1 -14 -8 -20 -16 -13 -32 2 -21 19 8 12 22
13 29 1z m3101 -9 c0 -18 -20 -15 -23 4 -3 10 1 15 10 12 7 -3 13 -10 13 -16z
m-11947 -73 c-2 -6 -8 -10 -13 -10 -5 0 -11 4 -13 10 -2 6 4 11 13 11 9 0 15
-5 13 -11z m3642 -40 c-14 -14 -16 -14 -31 0 -13 13 -13 18 -1 32 13 15 16 15
31 0 14 -14 14 -18 1 -32z m-2332 4 c16 -17 16 -19 0 -35 -17 -17 -19 -17 -35
0 -16 15 -16 19 -3 34 19 21 17 21 38 1z m1431 -30 c14 -11 14 -12 -1 -13 -10
0 -19 -8 -19 -17 -1 -17 -2 -17 -6 0 -2 9 -11 17 -19 17 -18 0 -18 6 4 28 10
10 19 13 21 7 2 -5 11 -15 20 -22z m6847 12 c14 -13 13 -17 -2 -32 -13 -13
-19 -14 -22 -5 -2 6 -11 12 -20 12 -13 0 -12 3 4 19 24 24 22 24 40 6z
m-10635 -46 c-12 -15 -15 -15 -30 0 -14 14 -14 18 -1 31 13 13 17 13 30 0 13
-13 13 -17 1 -31z m7142 13 c-7 -2 -13 -10 -13 -18 0 -11 -4 -10 -17 4 -16 15
-16 19 -3 32 13 13 17 13 30 0 12 -11 13 -16 3 -18z m7408 -13 c-12 -15 -15
-15 -30 0 -14 14 -14 18 -1 31 13 13 17 13 30 0 13 -13 13 -17 1 -31z m-5481
27 c0 -8 5 -16 11 -18 6 -2 1 -12 -10 -22 -19 -17 -21 -17 -21 -3 0 10 -5 17
-10 17 -6 0 -5 8 2 20 15 23 28 26 28 6z m-10770 -11 c0 -8 8 -15 17 -15 14 0
13 -3 -5 -20 l-22 -21 -22 21 c-18 17 -19 20 -5 20 9 0 17 7 17 15 0 8 5 15
10 15 6 0 10 -7 10 -15z m18261 -36 c-13 -13 -18 -13 -32 -1 -15 13 -15 16 0
31 14 14 18 14 32 1 14 -14 14 -16 0 -31z m-4716 18 c11 -12 11 -16 -3 -28
-15 -12 -19 -12 -33 2 -15 15 -15 17 0 27 21 14 20 14 36 -1z m-5709 -175 c9
-14 8 -22 -2 -37 -14 -18 -14 -18 -28 0 -10 15 -11 23 -2 37 6 10 13 18 16 18
3 0 10 -8 16 -18z m1922 1 c16 -17 16 -19 0 -35 -22 -22 -28 -22 -28 -3 0 8
-6 15 -12 16 -10 0 -10 2 0 6 6 2 12 11 12 19 0 18 6 18 28 -3z m7752 -79 c0
-8 7 -14 15 -14 8 0 15 -4 15 -10 0 -5 -6 -10 -14 -10 -8 0 -18 -10 -22 -22
l-7 -23 -10 23 c-6 12 -16 22 -24 22 -18 0 -17 4 9 33 23 26 38 27 38 1z
m-1914 -34 c8 0 14 -4 14 -10 0 -5 -9 -10 -20 -10 -13 0 -20 -7 -20 -20 0 -11
-4 -20 -10 -20 -5 0 -10 9 -10 20 0 13 -7 20 -20 20 -11 0 -20 5 -20 10 0 6 9
10 20 10 14 0 20 7 21 23 l0 22 16 -22 c8 -13 22 -23 29 -23z m-14926 -85 c0
-7 10 -17 23 -21 l22 -7 -22 -10 c-13 -6 -23 -16 -23 -24 0 -7 -4 -13 -10 -13
-5 0 -10 7 -10 15 0 8 -6 15 -14 15 -24 0 -30 21 -7 27 12 3 21 13 21 25 0 10
5 16 10 13 6 -3 10 -12 10 -20z m4003 -41 c9 -9 -4 -35 -14 -28 -5 3 -9 12 -9
20 0 14 12 19 23 8z m8237 -8 c0 -8 -4 -17 -9 -21 -12 -7 -24 12 -16 25 9 15
25 12 25 -4z m-11087 -103 c-17 -17 -19 -17 -35 0 -17 16 -17 18 0 35 16 16
18 16 35 0 16 -17 16 -19 0 -35z m1407 31 c0 -8 -7 -14 -15 -14 -15 0 -21 21
-9 33 10 9 24 -2 24 -19z m10605 7 c7 -12 -12 -24 -25 -16 -11 7 -4 25 10 25
5 0 11 -4 15 -9z m-7855 -55 c0 -8 -4 -17 -9 -21 -12 -7 -24 12 -16 25 9 15
25 12 25 -4z m5854 5 c3 -5 -1 -14 -8 -20 -16 -13 -32 2 -21 19 8 12 22 13 29
1z m4796 -65 c0 -8 -4 -17 -9 -20 -10 -7 -23 19 -14 28 11 11 23 6 23 -8z
m1164 -206 c-13 -13 -16 -13 -23 -1 -12 19 9 42 25 27 10 -9 9 -14 -2 -26z
m-17744 20 c0 -5 7 -10 15 -10 8 0 15 -4 15 -10 0 -5 -6 -10 -14 -10 -8 0 -16
-6 -18 -12 -3 -9 -9 -8 -22 4 -14 15 -15 20 -4 32 15 18 28 20 28 6z m6748
-57 c-4 -22 -22 -20 -26 1 -2 10 3 16 13 16 10 0 15 -7 13 -17z m2216 -84
c-15 -16 -17 -16 -32 -1 -15 15 -15 19 -2 33 13 14 17 14 33 1 16 -14 16 -17
1 -33z m-6486 11 c10 -17 10 -23 -3 -36 -13 -14 -17 -14 -30 0 -13 13 -13 19
-3 36 7 11 15 20 18 20 3 0 11 -9 18 -20z m12240 0 c10 -17 10 -23 -3 -36 -13
-14 -17 -14 -30 0 -13 13 -13 19 -3 36 7 11 15 20 18 20 3 0 11 -9 18 -20z
m-4548 -40 c-13 -13 -17 -13 -30 0 -13 13 -13 17 0 30 13 13 17 13 30 0 13
-13 13 -17 0 -30z m-9222 10 c16 -1 16 -2 0 -14 -10 -7 -18 -19 -18 -26 0 -9
-8 -6 -20 8 -19 21 -20 22 -3 42 15 17 19 18 21 5 2 -8 11 -15 20 -15z m7014
-82 c2 -15 11 -24 26 -26 12 -2 22 -7 22 -10 0 -4 -10 -12 -22 -17 -13 -6 -24
-20 -26 -33 -4 -26 -22 -20 -22 8 0 11 -10 20 -25 24 -31 8 -33 24 -2 28 14 2
23 11 25 26 2 12 7 22 12 22 5 0 10 -10 12 -22z m7948 -137 c-11 -7 -20 -21
-20 -30 -1 -13 -3 -12 -12 4 -6 11 -17 23 -24 28 -9 5 -7 13 8 30 l21 23 23
-20 c24 -21 24 -21 4 -35z m-11102 -13 c-6 -18 -28 -21 -28 -4 0 9 7 16 16 16
9 0 14 -5 12 -12z m-828 -120 c0 -5 -7 -8 -15 -8 -8 0 -15 -8 -16 -17 0 -14
-2 -15 -6 -3 -3 8 -12 19 -20 23 -12 7 -11 11 3 22 14 10 22 10 36 1 10 -6 18
-14 18 -18z m9568 6 c2 -1 -6 -12 -17 -23 -15 -15 -21 -17 -21 -7 0 8 -7 17
-17 20 -14 6 -14 8 3 20 14 11 23 12 34 3 8 -6 17 -12 18 -13z m-1999 -33 c16
-16 17 -20 5 -25 -8 -3 -14 -13 -14 -22 0 -13 -4 -12 -23 6 -22 21 -23 24 -8
41 20 22 18 22 40 0z m-9449 -101 c11 0 20 -4 20 -10 0 -5 -9 -10 -20 -10 -14
0 -25 -11 -34 -31 l-13 -31 -11 31 c-7 21 -17 31 -31 31 -12 0 -21 5 -21 10 0
6 9 10 21 10 14 0 24 10 31 31 l11 31 13 -31 c9 -20 20 -31 34 -31z m-1680
-170 c0 -5 7 -10 15 -10 20 0 19 -6 -4 -29 -18 -18 -19 -18 -35 0 -13 16 -14
22 -4 34 15 17 28 19 28 5z m17433 -140 c3 -11 12 -20 21 -20 9 0 16 -4 16
-10 0 -5 -7 -10 -15 -10 -9 0 -20 -10 -25 -22 l-9 -23 -7 23 c-4 13 -14 22
-25 22 -11 0 -19 5 -19 10 0 6 9 10 20 10 13 0 20 7 20 20 0 11 4 20 9 20 5 0
11 -9 14 -20z m-2608 -215 c9 -8 8 -14 -4 -25 -15 -14 -19 -14 -35 2 -17 16
-17 18 -2 24 9 3 16 14 17 23 0 13 2 14 6 1 4 -8 12 -19 18 -25z m-9400 -5 c8
0 15 -4 15 -10 0 -5 -7 -10 -15 -10 -9 0 -18 -6 -21 -14 -5 -12 -9 -11 -25 5
-18 18 -18 20 -1 37 13 14 19 15 25 5 4 -7 15 -13 22 -13z m7578 -1262 c111
-60 199 -164 239 -286 38 -115 18 -288 -47 -398 -36 -61 -132 -145 -211 -184
-63 -31 -78 -34 -180 -38 -88 -4 -123 -1 -165 13 -56 18 -119 52 -119 63 0 4
36 6 79 4 203 -10 366 85 457 265 35 68 47 137 42 240 -5 83 -10 102 -43 170
-22 45 -58 97 -87 125 -26 27 -48 51 -48 53 0 12 27 3 83 -27z m-4218 -4148
c-3 -5 -10 -10 -16 -10 -5 0 -9 5 -9 10 0 6 7 10 16 10 8 0 12 -4 9 -10z m102
-19 c3 -12 11 -17 19 -14 8 3 14 -1 14 -11 0 -9 6 -16 14 -16 8 0 16 -6 19
-12 6 -19 -3 -38 -19 -38 -8 0 -14 -7 -14 -15 0 -11 -12 -15 -50 -15 -50 0
-60 6 -39 27 6 6 9 19 7 29 -4 16 -7 15 -18 -8 -7 -15 -22 -30 -32 -34 -11 -3
-24 -15 -29 -27 -8 -19 -9 -18 -4 6 3 15 14 36 25 47 11 11 20 23 20 28 0 13
58 72 70 72 7 0 14 -9 17 -19z m127 -106 c4 -11 -2 -15 -22 -15 -26 1 -26 1
-8 15 24 18 23 18 30 0z m-874 -110 c0 -12 -19 -12 -23 0 -4 9 -1 12 9 8 7 -3
14 -7 14 -8z m694 -1 c5 -14 4 -15 -9 -4 -17 14 -19 20 -6 20 5 0 12 -7 15
-16z m-7254 -28 c0 -3 -4 -8 -10 -11 -5 -3 -10 -1 -10 4 0 6 5 11 10 11 6 0
10 -2 10 -4z m-144 -61 c-11 -8 -24 -15 -30 -15 -5 0 -1 7 10 15 10 8 24 14
29 14 6 0 1 -6 -9 -14z m6409 -25 c-3 -5 -14 -10 -23 -10 -15 0 -15 2 -2 10
20 13 33 13 25 0z m-6585 -44 c0 -3 -4 -8 -10 -11 -5 -3 -10 -1 -10 4 0 6 5
11 10 11 6 0 10 -2 10 -4z m6430 -4 c0 -5 -11 -14 -25 -20 -14 -6 -25 -8 -25
-4 0 6 9 12 48 31 1 0 2 -3 2 -7z m-190 -77 c0 -12 -19 -12 -23 0 -4 9 -1 12
9 8 7 -3 14 -7 14 -8z m47 9 c-3 -3 -12 -4 -19 -1 -8 3 -5 6 6 6 11 1 17 -2
13 -5z m-90 -30 c-3 -3 -12 -4 -19 -1 -8 3 -5 6 6 6 11 1 17 -2 13 -5z m983
-4 c0 -5 -5 -10 -11 -10 -5 0 -7 5 -4 10 3 6 8 10 11 10 2 0 4 -4 4 -10z
m-7490 -14 c0 -2 -7 -6 -15 -10 -8 -3 -15 -1 -15 4 0 6 7 10 15 10 8 0 15 -2
15 -4z m-124 -51 c-11 -8 -27 -15 -35 -15 -9 1 -2 7 14 15 39 18 44 18 21 0z
m6434 6 c0 -8 -52 -31 -69 -31 -8 0 52 38 62 39 4 1 7 -3 7 -8z m-4820 -11 c0
-5 -5 -10 -11 -10 -5 0 -7 5 -4 10 3 6 8 10 11 10 2 0 4 -4 4 -10z m-2320 -40
c0 -5 -4 -10 -10 -10 -5 0 -10 5 -10 10 0 6 5 10 10 10 6 0 10 -4 10 -10z
m501 -20 c6 0 7 -4 4 -10 -3 -5 -13 -10 -21 -10 -8 0 -13 4 -10 9 4 5 3 11 -1
14 -5 2 -2 2 5 0 8 -1 18 -3 23 -3z m56 4 c-3 -3 -12 -4 -19 -1 -8 3 -5 6 6 6
11 1 17 -2 13 -5z m6430 0 c-3 -3 -12 -4 -19 -1 -8 3 -5 6 6 6 11 1 17 -2 13
-5z m-57 -14 c-20 -13 -33 -13 -25 0 3 6 14 10 23 10 15 0 15 -2 2 -10z
m-4450 -10 c0 -5 -4 -10 -10 -10 -5 0 -10 5 -10 10 0 6 5 10 10 10 6 0 10 -4
10 -10z m2000 0 c0 -5 -5 -10 -11 -10 -5 0 -7 5 -4 10 3 6 8 10 11 10 2 0 4
-4 4 -10z m-4030 -14 c0 -2 -9 -6 -20 -9 -11 -3 -18 -1 -14 4 5 9 34 13 34 5z
m15787 -2 c-3 -3 -12 -4 -19 -1 -8 3 -5 6 6 6 11 1 17 -2 13 -5z m-9587 -44
c-19 -13 -30 -13 -30 0 0 6 10 10 23 10 18 0 19 -2 7 -10z m117 4 c-3 -3 -12
-4 -19 -1 -8 3 -5 6 6 6 11 1 17 -2 13 -5z m2993 -4 c0 -5 -2 -10 -4 -10 -3 0
-8 5 -11 10 -3 6 -1 10 4 10 6 0 11 -4 11 -10z m3460 2 c-8 -3 -18 -10 -22
-16 -6 -8 -8 -8 -8 1 0 6 -8 13 -17 16 -10 2 0 4 22 4 22 0 33 -2 25 -5z m-95
-12 c-3 -5 -10 -10 -16 -10 -5 0 -9 5 -9 10 0 6 7 10 16 10 8 0 12 -4 9 -10z
m-12880 -10 c3 -5 -1 -10 -9 -10 -9 0 -16 5 -16 10 0 6 4 10 9 10 6 0 13 -4
16 -10z m2395 0 c0 -5 -4 -10 -10 -10 -5 0 -10 5 -10 10 0 6 5 10 10 10 6 0
10 -4 10 -10z m1405 -10 c-3 -5 -12 -10 -18 -10 -7 0 -6 4 3 10 19 12 23 12
15 0z m2615 6 c0 -3 -4 -8 -10 -11 -5 -3 -10 -1 -10 4 0 6 5 11 10 11 6 0 10
-2 10 -4z m6507 -2 c-3 -3 -12 -4 -19 -1 -8 3 -5 6 6 6 11 1 17 -2 13 -5z
m103 -24 c11 -11 28 -20 38 -20 9 0 26 -7 36 -15 11 -8 29 -15 40 -15 25 -1
56 -22 56 -39 0 -6 8 -11 18 -11 32 0 93 -27 124 -53 16 -15 41 -27 53 -27 13
0 30 -6 38 -14 8 -8 30 -21 51 -30 20 -8 36 -20 36 -25 0 -6 9 -11 20 -11 17
0 20 -7 20 -40 0 -33 -3 -40 -20 -40 -15 0 -20 7 -20 25 0 14 -4 25 -9 25 -5
0 -18 -11 -29 -25 -17 -21 -28 -25 -71 -25 -47 0 -51 -2 -51 -24 0 -16 -7 -27
-20 -31 -11 -3 -20 -11 -20 -16 0 -5 -9 -9 -20 -9 -15 0 -20 -7 -20 -25 0 -22
-4 -25 -40 -25 -29 0 -40 -4 -40 -15 0 -11 -11 -15 -40 -15 -36 0 -40 -2 -40
-25 0 -22 -4 -25 -40 -25 -29 0 -40 -4 -40 -15 0 -11 -11 -15 -40 -15 -36 0
-40 -2 -40 -25 0 -22 -4 -25 -40 -25 -43 0 -43 0 -40 -67 l2 -43 -81 0 -81 0
0 -40 0 -40 -85 0 -85 0 0 -50 c0 -27 -3 -50 -8 -50 -10 0 2 168 14 179 5 4
43 21 84 36 41 16 77 31 80 35 3 4 24 11 47 17 77 19 131 82 152 176 12 52 0
172 -24 246 -29 88 -17 149 42 218 32 37 65 41 93 13z m-6663 4 c-3 -3 -12 -4
-19 -1 -8 3 -5 6 6 6 11 1 17 -2 13 -5z m6490 0 c-3 -3 -12 -4 -19 -1 -8 3 -5
6 6 6 11 1 17 -2 13 -5z m-3257 -14 c0 -5 -5 -10 -11 -10 -5 0 -7 5 -4 10 3 6
8 10 11 10 2 0 4 -4 4 -10z m-7073 -16 c-3 -3 -12 -4 -19 -1 -8 3 -5 6 6 6 11
1 17 -2 13 -5z m3610 0 c-3 -3 -12 -4 -19 -1 -8 3 -5 6 6 6 11 1 17 -2 13 -5z
m160 0 c-3 -3 -12 -4 -19 -1 -8 3 -5 6 6 6 11 1 17 -2 13 -5z m6466 -1 c-7 -2
-21 -2 -30 0 -10 3 -4 5 12 5 17 0 24 -2 18 -5z m2852 -13 c3 -5 1 -10 -4 -10
-6 0 -11 5 -11 10 0 6 2 10 4 10 3 0 8 -4 11 -10z m-13035 -16 c0 -2 -9 -4
-20 -4 -11 0 -20 4 -20 9 0 5 9 7 20 4 11 -3 20 -7 20 -9z m12967 10 c-3 -3
-12 -4 -19 -1 -8 3 -5 6 6 6 11 1 17 -2 13 -5z m-9330 -10 c-3 -3 -12 -4 -19
-1 -8 3 -5 6 6 6 11 1 17 -2 13 -5z m-57 -8 c0 -2 -7 -7 -16 -10 -8 -3 -12 -2
-9 4 6 10 25 14 25 6z m6425 -6 c-3 -5 -10 -10 -16 -10 -5 0 -9 5 -9 10 0 6 7
10 16 10 8 0 12 -4 9 -10z m-6465 -20 c0 -5 -5 -10 -11 -10 -5 0 -7 5 -4 10 3
6 8 10 11 10 2 0 4 -4 4 -10z m-3423 -24 c0 -8 -6 -12 -14 -9 -7 3 -13 9 -13
14 0 5 6 9 13 9 8 0 14 -6 14 -14z m103 -2 c0 -8 -4 -12 -10 -9 -5 3 -10 10
-10 16 0 5 5 9 10 9 6 0 10 -7 10 -16z m3220 -4 c0 -11 -67 -33 -83 -27 -6 2
4 9 23 14 19 6 34 15 33 21 -2 6 4 9 12 6 8 -4 15 -10 15 -14z m67 14 c-3 -3
-12 -4 -19 -1 -8 3 -5 6 6 6 11 1 17 -2 13 -5z m6266 -1 c-7 -2 -19 -2 -25 0
-7 3 -2 5 12 5 14 0 19 -2 13 -5z m-9613 -18 c10 -12 10 -15 -4 -15 -9 0 -16
7 -16 15 0 8 2 15 4 15 2 0 9 -7 16 -15z m720 5 c0 -5 -4 -10 -10 -10 -5 0
-10 5 -10 10 0 6 5 10 10 10 6 0 10 -4 10 -10z m8810 0 c0 -5 -7 -10 -15 -10
-8 0 -15 5 -15 10 0 6 7 10 15 10 8 0 15 -4 15 -10z m146 -5 c-11 -8 -31 -14
-45 -14 -26 2 -26 2 2 6 15 2 27 9 27 14 0 5 8 9 18 9 15 -1 15 -2 -2 -15z
m2888 -19 c-3 -9 -10 -16 -15 -16 -14 0 -11 28 4 33 16 6 19 3 11 -17z
m-11914 4 c0 -5 -7 -10 -15 -10 -8 0 -15 5 -15 10 0 6 7 10 15 10 8 0 15 -4
15 -10z m1330 -5 c0 -8 -4 -15 -9 -15 -5 0 -14 7 -21 15 -10 13 -9 15 9 15 12
0 21 -6 21 -15z m7576 -10 c-11 -8 -27 -15 -35 -15 -13 1 -12 4 3 15 11 8 27
15 35 15 13 -1 12 -4 -3 -15z m-9336 -41 c0 -8 -4 -12 -10 -9 -5 3 -10 10 -10
16 0 5 5 9 10 9 6 0 10 -7 10 -16z m1867 10 c-3 -3 -12 -4 -19 -1 -8 3 -5 6 6
6 11 1 17 -2 13 -5z m1026 -1 c-7 -2 -19 -2 -25 0 -7 3 -2 5 12 5 14 0 19 -2
13 -5z m6322 -3 c-11 -5 -27 -9 -35 -9 -9 0 -8 4 5 9 11 5 27 9 35 9 9 0 8 -4
-5 -9z m-9275 -15 c10 -12 10 -15 -4 -15 -9 0 -16 7 -16 15 0 8 2 15 4 15 2 0
9 -7 16 -15z m2810 5 c0 -5 -7 -10 -15 -10 -8 0 -15 5 -15 10 0 6 7 10 15 10
8 0 15 -4 15 -10z m-2485 -10 c-3 -5 -16 -10 -28 -10 -18 0 -19 2 -7 10 20 13
43 13 35 0z m2535 0 c0 -5 -5 -10 -11 -10 -5 0 -7 5 -4 10 3 6 8 10 11 10 2 0
4 -4 4 -10z m4160 -10 c0 -5 -4 -10 -10 -10 -5 0 -10 5 -10 10 0 6 5 10 10 10
6 0 10 -4 10 -10z m2187 4 c-3 -3 -12 -4 -19 -1 -8 3 -5 6 6 6 11 1 17 -2 13
-5z m-6382 -14 c-3 -5 -16 -10 -28 -9 -20 1 -20 2 3 9 14 4 26 8 28 9 2 1 0
-3 -3 -9z m6300 0 c-3 -5 -10 -10 -16 -10 -5 0 -9 5 -9 10 0 6 7 10 16 10 8 0
12 -4 9 -10z m-7148 -22 c-3 -8 -6 -5 -6 6 -1 11 2 17 5 13 3 -3 4 -12 1 -19z
m-1810 -14 c-3 -3 -12 -4 -19 -1 -8 3 -5 6 6 6 11 1 17 -2 13 -5z m8633 -15
c0 -5 -4 -9 -10 -9 -5 0 -10 7 -10 16 0 8 5 12 10 9 6 -3 10 -10 10 -16z m237
15 c-3 -3 -12 -4 -19 -1 -8 3 -5 6 6 6 11 1 17 -2 13 -5z m-6467 -20 c0 -2 -7
-4 -15 -4 -8 0 -15 4 -15 10 0 5 7 7 15 4 8 -4 15 -8 15 -10z m110 6 c-20 -13
-33 -13 -25 0 3 6 14 10 23 10 15 0 15 -2 2 -10z m6276 -5 c-11 -8 -27 -14
-35 -14 -13 1 -12 2 2 6 9 2 17 9 17 14 0 5 8 9 18 9 15 -1 15 -2 -2 -15z
m3054 -1 c0 -2 -7 -4 -15 -4 -8 0 -15 4 -15 10 0 5 7 7 15 4 8 -4 15 -8 15
-10z m-11893 0 c-3 -3 -12 -4 -19 -1 -8 3 -5 6 6 6 11 1 17 -2 13 -5z m8753
-24 c0 -5 -6 -7 -14 -4 -8 3 -28 -2 -45 -11 -17 -8 -31 -11 -31 -6 0 10 45 29
73 30 9 1 17 -3 17 -9z m3130 -9 c0 -6 -4 -13 -10 -16 -5 -3 -10 1 -10 9 0 9
5 16 10 16 6 0 10 -4 10 -9z m-9827 -28 c-7 -2 -19 -2 -25 0 -7 3 -2 5 12 5
14 0 19 -2 13 -5z m6547 -3 c-34 -11 -60 -11 -35 0 11 5 29 8 40 8 16 0 15 -2
-5 -8z m3180 -10 c0 -5 -9 -10 -21 -10 -11 0 -17 5 -14 10 3 6 13 10 21 10 8
0 14 -4 14 -10z m-9680 -10 c0 -5 -2 -10 -4 -10 -3 0 -8 5 -11 10 -3 6 -1 10
4 10 6 0 11 -4 11 -10z m195 1 c-6 -5 -21 -11 -35 -14 -14 -2 -19 -2 -12 0 6
3 12 9 12 14 0 5 10 9 22 9 14 0 18 -4 13 -9z m6230 -1 c-3 -5 -10 -10 -16
-10 -5 0 -9 5 -9 10 0 6 7 10 16 10 8 0 12 -4 9 -10z m2375 -15 c0 -8 -4 -15
-9 -15 -5 0 -14 7 -21 15 -10 13 -9 15 9 15 12 0 21 -6 21 -15z m-2450 -5 c0
-5 -7 -10 -15 -10 -8 0 -15 5 -15 10 0 6 7 10 15 10 8 0 15 -4 15 -10z m-6233
-6 c-3 -3 -12 -4 -19 -1 -8 3 -5 6 6 6 11 1 17 -2 13 -5z m5918 -34 c3 -5 -3
-10 -14 -10 -12 0 -21 5 -21 10 0 6 6 10 14 10 8 0 18 -4 21 -10z m78 3 c-7
-2 -19 -2 -25 0 -7 3 -2 5 12 5 14 0 19 -2 13 -5z m140 0 c-7 -2 -21 -2 -30 0
-10 3 -4 5 12 5 17 0 24 -2 18 -5z m2624 1 c-3 -3 -12 -4 -19 -1 -8 3 -5 6 6
6 11 1 17 -2 13 -5z m-2697 -8 c0 -3 -4 -8 -10 -11 -5 -3 -10 -1 -10 4 0 6 5
11 10 11 6 0 10 -2 10 -4z m-1005 -16 c3 -5 -1 -10 -9 -10 -9 0 -16 5 -16 10
0 6 4 10 9 10 6 0 13 -4 16 -10z m925 -10 c-8 -5 -22 -10 -30 -10 -13 0 -13 1
0 10 8 5 22 10 30 10 13 0 13 -1 0 -10z m3287 -6 c-3 -3 -12 -4 -19 -1 -8 3
-5 6 6 6 11 1 17 -2 13 -5z m-3367 -14 c0 -5 -4 -10 -10 -10 -5 0 -10 5 -10
10 0 6 5 10 10 10 6 0 10 -4 10 -10z m-805 -29 c-6 -5 -25 10 -25 20 0 5 6 4
14 -3 8 -7 12 -15 11 -17z m715 -1 c-8 -5 -22 -9 -30 -9 -10 0 -8 3 5 9 27 12
43 12 25 0z m3232 1 c-12 -7 -62 -4 -62 5 0 2 17 4 38 4 23 0 32 -3 24 -9z
m-3312 -21 c0 -5 -12 -10 -27 -9 l-28 1 25 8 c14 4 26 8 28 9 1 1 2 -3 2 -9z
m3360 -10 c0 -5 -2 -10 -4 -10 -3 0 -8 5 -11 10 -3 6 -1 10 4 10 6 0 11 -4 11
-10z m-3870 -10 c0 -5 -6 -10 -14 -10 -8 0 -18 5 -21 10 -3 6 3 10 14 10 12 0
21 -4 21 -10z m440 0 c0 -5 -4 -10 -10 -10 -5 0 -10 5 -10 10 0 6 5 10 10 10
6 0 10 -4 10 -10z m3340 0 c0 -5 -2 -10 -4 -10 -3 0 -8 5 -11 10 -3 6 -1 10 4
10 6 0 11 -4 11 -10z m-3750 -40 c0 -5 -2 -10 -4 -10 -3 0 -8 5 -11 10 -3 6
-1 10 4 10 6 0 11 -4 11 -10z m6739 -177 c0 -25 -1 -26 -9 -8 -12 27 -12 35 0
35 6 0 10 -12 9 -27z m31 -15 c0 -24 -8 -52 -17 -63 -15 -19 -15 -18 -9 14 3
18 6 46 6 62 0 16 5 29 10 29 6 0 10 -19 10 -42z m17 -20 c-2 -13 -4 -3 -4 22
0 25 2 35 4 23 2 -13 2 -33 0 -45z m-80 -140 c-3 -8 -6 -5 -6 6 -1 11 2 17 5
13 3 -3 4 -12 1 -19z m-4666 -10 c-4 -13 -18 -24 -30 -26 -11 -2 -21 -8 -21
-14 0 -6 -3 -8 -7 -5 -5 6 53 67 63 67 2 0 0 -10 -5 -22z m-71 -63 c0 -9 -9
-15 -21 -15 -18 0 -19 2 -9 15 7 8 16 15 21 15 5 0 9 -7 9 -15z m-70 -35 c-8
-6 -22 -10 -30 -9 -9 0 -5 6 10 14 27 14 44 10 20 -5z m-80 -40 c-8 -5 -17 -7
-19 -4 -3 3 1 9 9 14 8 5 17 7 19 4 3 -3 -1 -9 -9 -14z m-65 -21 c4 -6 14 -8
22 -4 13 4 14 3 3 -10 -16 -19 -30 -19 -30 0 0 14 -3 14 -31 0 -17 -9 -40 -15
-52 -13 -17 3 -12 7 23 20 56 20 57 20 65 7z m72 -5 c-3 -3 -12 -4 -19 -1 -8
3 -5 6 6 6 11 1 17 -2 13 -5z m-237 -54 c0 -5 -5 -10 -11 -10 -7 0 -20 -9 -30
-21 -12 -14 -25 -19 -41 -15 -13 3 -17 3 -10 0 6 -3 12 -23 12 -45 l0 -39 -77
0 c-82 0 -117 10 -92 26 36 23 71 40 154 75 50 20 91 38 93 38 1 1 2 -3 2 -9z
m0 -40 c0 -5 -4 -10 -10 -10 -5 0 -10 5 -10 10 0 6 5 10 10 10 6 0 10 -4 10
-10z m-256 -86 c22 -8 20 -40 -4 -64 -15 -15 -33 -20 -71 -20 l-52 0 27 25
c15 14 33 25 41 25 8 0 19 9 25 20 12 22 12 22 34 14z m-154 -149 c-21 -26
-31 -16 -13 11 9 15 19 21 21 15 2 -6 -2 -18 -8 -26z m-39 -68 c-8 -8 -11 -5
-11 9 0 27 14 41 18 19 2 -9 -1 -22 -7 -28z m4126 -303 c-3 -3 -12 -4 -19 -1
-8 3 -5 6 6 6 11 1 17 -2 13 -5z m-77 -14 c0 -5 -4 -10 -10 -10 -5 0 -10 5
-10 10 0 6 5 10 10 10 6 0 10 -4 10 -10z m-65 -20 c-27 -12 -43 -12 -25 0 8 5
22 9 30 9 10 0 8 -3 -5 -9z m-95 -40 c0 -13 -11 -13 -30 0 -12 8 -11 10 8 10
12 0 22 -4 22 -10z m-80 -20 c0 -5 19 -10 42 -10 23 0 38 -3 34 -7 -7 -7 -108
-4 -116 3 -5 5 20 24 33 24 4 0 7 -4 7 -10z m-70 -20 c12 -8 11 -10 -7 -10
-13 0 -23 5 -23 10 0 13 11 13 30 0z m-90 -28 c0 -8 -86 -32 -113 -32 -26 0
12 21 54 29 61 12 59 12 59 3z"/>
<path d="M14034 1455 c-18 -14 -18 -14 4 -8 12 3 22 9 22 14 0 12 -3 11 -26
-6z"/>
<path d="M13105 840 c-3 -5 -1 -10 4 -10 6 0 11 5 11 10 0 6 -2 10 -4 10 -3 0
-8 -4 -11 -10z"/>
<path d="M13070 819 c0 -5 5 -7 10 -4 6 3 10 8 10 11 0 2 -4 4 -10 4 -5 0 -10
-5 -10 -11z"/>
<path d="M16071 9 c13 -8 97 -13 88 -5 -2 2 -26 6 -53 9 -30 3 -43 1 -35 -4z"/>
</g>
</svg>
